<svg width="78" height="39" viewBox="0 0 78 39" fill="none" xmlns="http://www.w3.org/2000/svg">
<path d="M26.424 39H51.55C55.1148 39 56.8973 37.847 56.8973 35.541C56.8973 34.1855 56.4906 32.7332 55.6773 31.1841C54.8639 29.635 53.6829 28.1784 52.1342 26.8142C50.5855 25.4499 48.7036 24.3321 46.4886 23.4607C44.2736 22.5894 41.7731 22.1537 38.9871 22.1537C36.201 22.1537 33.7048 22.5894 31.4985 23.4607C29.2922 24.3321 27.4103 25.4499 25.8529 26.8142C24.2955 28.1784 23.1102 29.635 22.2969 31.1841C21.4836 32.7332 21.0769 34.1855 21.0769 35.541C21.0769 37.847 22.8593 39 26.424 39ZM38.9871 19.3812C40.6137 19.3812 42.1062 18.9367 43.4646 18.0477C44.823 17.1588 45.9045 15.9661 46.7092 14.4699C47.5138 12.9736 47.9162 11.3365 47.9162 9.55857C47.9162 7.76303 47.5181 6.14353 46.7221 4.70006C45.9262 3.2566 44.8533 2.1124 43.5035 1.26746C42.1538 0.422489 40.6483 0 38.9871 0C37.3604 0 35.8679 0.431284 34.5095 1.29385C33.1511 2.15642 32.0696 3.31383 31.2649 4.76609C30.4603 6.21835 30.0579 7.83344 30.0579 9.61135C30.0579 11.3893 30.4646 13.0176 31.2779 14.4963C32.0912 15.9749 33.1727 17.1588 34.5225 18.0477C35.8722 18.9367 37.3604 19.3812 38.9871 19.3812ZM25.2559 35.4353C25.1175 35.4353 25.0093 35.4089 24.9314 35.3561C24.8536 35.3033 24.8147 35.2065 24.8147 35.0657C24.8147 34.2911 25.1218 33.3758 25.7361 32.3195C26.3504 31.2633 27.2589 30.2336 28.4616 29.2302C29.6642 28.2268 31.1438 27.3906 32.9002 26.7217C34.6566 26.0528 36.6855 25.7183 38.9871 25.7183C41.2886 25.7183 43.3175 26.0528 45.0739 26.7217C46.8303 27.3906 48.3098 28.2268 49.5124 29.2302C50.7152 30.2336 51.6237 31.2633 52.2379 32.3195C52.8524 33.3758 53.1596 34.2911 53.1596 35.0657C53.1596 35.2065 53.1249 35.3033 53.0555 35.3561C52.9863 35.4089 52.874 35.4353 52.7184 35.4353H25.2559ZM38.9871 15.8165C38.0699 15.8165 37.2177 15.5393 36.4303 14.9848C35.6429 14.4303 35.007 13.6821 34.5225 12.7404C34.0379 11.7986 33.7957 10.7556 33.7957 9.61135C33.7957 8.44956 34.0336 7.41537 34.5095 6.50878C34.9854 5.60223 35.617 4.8849 36.4044 4.35678C37.1917 3.8287 38.0526 3.56466 38.9871 3.56466C39.9388 3.56466 40.8083 3.8243 41.5957 4.34359C42.3831 4.86291 43.0103 5.57145 43.4776 6.4692C43.9448 7.36695 44.1784 8.39674 44.1784 9.55857C44.1784 10.7028 43.9405 11.7502 43.4646 12.7007C42.9887 13.6513 42.3571 14.4083 41.5698 14.9716C40.7824 15.5349 39.9215 15.8165 38.9871 15.8165Z" fill="#313131"/>
<path d="M62.4259 19.8566C63.8449 19.8566 65.1384 19.4693 66.3065 18.6948C67.4746 17.9202 68.4134 16.8816 69.1229 15.579C69.8324 14.2764 70.1872 12.8329 70.1872 11.2486C70.1872 9.71711 69.8367 8.31325 69.1357 7.03702C68.435 5.7608 67.4962 4.73981 66.3193 3.97404C65.1427 3.20831 63.8449 2.82544 62.4259 2.82544C60.9899 2.82544 59.6878 3.19951 58.5197 3.94765C57.3516 4.69579 56.4215 5.70357 55.7294 6.971C55.0369 8.23846 54.6907 9.65553 54.6907 11.2222C54.6907 12.7889 55.0411 14.228 55.7421 15.5394C56.4431 16.8509 57.3819 17.8982 58.5585 18.6816C59.7351 19.4649 61.0242 19.8566 62.4259 19.8566ZM15.5741 19.8566C16.9757 19.8566 18.2649 19.4649 19.4416 18.6816C20.6183 17.8982 21.5571 16.8509 22.2579 15.5394C22.9588 14.228 23.3092 12.7889 23.3092 11.2222C23.3092 9.65553 22.9631 8.23846 22.2709 6.971C21.5787 5.70357 20.6486 4.69579 19.4805 3.94765C18.3125 3.19951 17.0103 2.82544 15.5741 2.82544C14.1551 2.82544 12.8573 3.20831 11.6806 3.97404C10.5039 4.73981 9.56507 5.7608 8.86422 7.03702C8.1634 8.31325 7.81299 9.71711 7.81299 11.2486C7.81299 12.8329 8.16773 14.2764 8.87719 15.579C9.58669 16.8816 10.5255 17.9202 11.6935 18.6948C12.8616 19.4693 14.1551 19.8566 15.5741 19.8566ZM4.41265 39.0001H19.8829C19.3292 38.6833 18.8792 38.2036 18.5331 37.5611C18.187 36.9185 18.0659 36.2364 18.1697 35.5147H3.78967C3.68587 35.5147 3.60369 35.4883 3.54312 35.4355C3.48255 35.3827 3.45227 35.2946 3.45227 35.1714C3.45227 33.5519 4.01034 32.0116 5.12647 30.5505C6.24261 29.0895 7.72214 27.9013 9.56508 26.9859C11.408 26.0705 13.4024 25.6129 15.5481 25.6129C16.7075 25.6129 17.802 25.7361 18.8316 25.9825C19.8612 26.229 20.8433 26.5898 21.7777 27.0651C22.1411 26.6074 22.5391 26.1673 22.9717 25.7449C23.4043 25.3224 23.8802 24.9263 24.3994 24.5567C23.1015 23.7469 21.7042 23.1396 20.2073 22.7347C18.7105 22.3298 17.1574 22.1274 15.5481 22.1274C13.4543 22.1274 11.4729 22.4839 9.60399 23.1968C7.73511 23.9097 6.07821 24.8823 4.63326 26.1145C3.18835 27.3468 2.05492 28.7638 1.23297 30.3657C0.41099 31.9676 0 33.6487 0 35.4091C0 36.6061 0.367718 37.5038 1.10315 38.1024C1.8386 38.7009 2.94176 39.0001 4.41265 39.0001ZM73.5872 39.0001C75.0583 39.0001 76.1616 38.7009 76.8969 38.1024C77.6323 37.5038 78 36.6061 78 35.4091C78 33.6487 77.5891 31.9676 76.7672 30.3657C75.945 28.7638 74.8115 27.3468 73.3666 26.1145C71.9217 24.8823 70.2649 23.9097 68.3962 23.1968C66.5271 22.4839 64.5457 22.1274 62.4519 22.1274C60.8426 22.1274 59.2895 22.3298 57.7925 22.7347C56.2959 23.1396 54.8987 23.7469 53.6009 24.5567C54.1201 24.9263 54.5958 25.3224 55.0282 25.7449C55.4609 26.1673 55.8589 26.6074 56.2222 27.0651C57.1567 26.5898 58.1387 26.229 59.1683 25.9825C60.1981 25.7361 61.2927 25.6129 62.4519 25.6129C64.5978 25.6129 66.5922 26.0705 68.435 26.9859C70.2779 27.9013 71.7575 29.0895 72.8738 30.5505C73.9898 32.0116 74.5478 33.5519 74.5478 35.1714C74.5478 35.2946 74.5175 35.3827 74.4569 35.4355C74.3963 35.4883 74.3141 35.5147 74.2103 35.5147H59.8301C59.9339 36.2364 59.8129 36.9185 59.467 37.5611C59.1208 38.2036 58.6709 38.6833 58.1173 39.0001H73.5872ZM62.4259 16.3447C61.2666 16.3447 60.2587 15.843 59.4022 14.8397C58.5456 13.8363 58.1173 12.6305 58.1173 11.2222C58.1173 10.3068 58.3076 9.47947 58.6882 8.74013C59.0689 8.00079 59.5881 7.41547 60.2458 6.98419C60.9032 6.55294 61.6299 6.33732 62.4259 6.33732C63.2048 6.33732 63.923 6.55736 64.5804 6.99744C65.2378 7.43752 65.7613 8.02721 66.1508 8.76652C66.5402 9.50586 66.735 10.3332 66.735 11.2486C66.735 12.6568 66.3067 13.8583 65.4501 14.8529C64.5935 15.8474 63.5855 16.3447 62.4259 16.3447ZM15.5741 16.3447C14.4147 16.3447 13.4067 15.8474 12.5501 14.8529C11.6935 13.8583 11.2652 12.6568 11.2652 11.2486C11.2652 10.3332 11.4599 9.50586 11.8493 8.76652C12.2386 8.02721 12.7621 7.43752 13.4197 6.99744C14.0772 6.55736 14.7953 6.33732 15.5741 6.33732C16.3701 6.33732 17.0969 6.55294 17.7544 6.98419C18.412 7.41547 18.9311 8.00079 19.3119 8.74013C19.6926 9.47947 19.8829 10.3068 19.8829 11.2222C19.8829 12.6305 19.4546 13.8363 18.598 14.8397C17.7415 15.843 16.7335 16.3447 15.5741 16.3447Z" fill="#313131"/>
</svg>
