<svg width="63" height="39" viewBox="0 0 63 39" fill="none" xmlns="http://www.w3.org/2000/svg">
<path d="M7.20082 39H35.0722C34.771 38.3864 34.5639 37.701 34.451 36.9436C34.338 36.1862 34.338 35.4911 34.451 34.8584H7.25733C6.24071 34.8584 5.45473 34.5804 4.89938 34.0243C4.34403 33.4683 4.06636 32.6438 4.06636 31.5509V14.5531H45.2945C45.8593 13.7094 46.5841 13.0575 47.4689 12.5973C48.3537 12.1372 49.3044 11.9071 50.321 11.9071C51.0552 11.9071 51.7329 12.0221 52.3542 12.2522V7.219C52.3542 4.80308 51.7565 2.99593 50.5611 1.79754C49.3656 0.59918 47.5631 0 45.1534 0H7.20082C4.80995 0 3.0121 0.59918 1.80725 1.79754C0.602418 2.99593 0 4.80308 0 7.219V31.7809C0 34.1969 0.602418 36.0041 1.80725 37.2024C3.0121 38.4008 4.80995 39 7.20082 39ZM4.06636 9.37607V7.44907C4.06636 6.35615 4.34403 5.53167 4.89938 4.97563C5.45473 4.41959 6.24071 4.14157 7.25733 4.14157H45.0969C46.1135 4.14157 46.8995 4.41959 47.4548 4.97563C48.0102 5.53167 48.2878 6.35615 48.2878 7.44907V9.37607H4.06636ZM10.2506 30.7743H15.6723C16.3313 30.7743 16.8584 30.573 17.2537 30.1704C17.6491 29.7677 17.8467 29.25 17.8467 28.6172V24.4469C17.8467 23.8141 17.6491 23.2964 17.2537 22.8938C16.8584 22.4911 16.3313 22.2898 15.6723 22.2898H10.2506C9.61051 22.2898 9.08811 22.4911 8.68336 22.8938C8.27861 23.2964 8.07623 23.8141 8.07623 24.4469V28.6172C8.07623 29.25 8.27861 29.7677 8.68336 30.1704C9.08811 30.573 9.61051 30.7743 10.2506 30.7743Z" fill="#313131"/>
<path d="M40.6634 38.9999H59.9221C60.8632 38.9999 61.6116 38.7075 62.1671 38.1226C62.7223 37.5378 62.9999 36.8044 62.9999 35.9224C62.9999 35.4047 62.8588 34.8966 62.5766 34.3981L52.9192 16.8538C52.6365 16.3169 52.2599 15.9191 51.7893 15.6603C51.3187 15.4014 50.8292 15.272 50.3209 15.272C49.7938 15.272 49.2902 15.4014 48.8102 15.6603C48.3301 15.9191 47.9489 16.3169 47.6665 16.8538L38.0654 34.3981C37.783 34.8966 37.6418 35.4047 37.6418 35.9224C37.6418 36.8044 37.9148 37.5378 38.4608 38.1226C39.0067 38.7075 39.7409 38.9999 40.6634 38.9999Z" fill="#313131"/>
<path d="M50.321 30.0554C49.9068 30.0554 49.568 29.926 49.3044 29.6672C49.0408 29.4083 48.8997 29.0776 48.8808 28.6749L48.6832 22.3762C48.6644 21.8968 48.8055 21.5038 49.1067 21.197C49.408 20.8902 49.8127 20.7368 50.321 20.7368C50.8105 20.7368 51.2058 20.8902 51.507 21.197C51.8082 21.5038 51.9589 21.8968 51.9589 22.3762L51.7612 28.6749C51.7424 29.0776 51.6012 29.4083 51.3376 29.6672C51.0741 29.926 50.7352 30.0554 50.321 30.0554ZM50.321 35.5775C49.7939 35.5775 49.3374 35.3858 48.9515 35.0023C48.5655 34.6188 48.3726 34.1491 48.3726 33.593C48.3726 33.0562 48.5655 32.5912 48.9515 32.1981C49.3374 31.8051 49.7939 31.6085 50.321 31.6085C50.867 31.6085 51.3282 31.8051 51.7047 32.1981C52.081 32.5912 52.2692 33.0562 52.2692 33.593C52.2692 34.1491 52.081 34.6188 51.7047 35.0023C51.3282 35.3858 50.867 35.5775 50.321 35.5775Z" fill="white"/>
</svg>
