<svg width="31" height="30" viewBox="0 0 31 30" fill="none" xmlns="http://www.w3.org/2000/svg">
<path d="M3.90124 13.6148H10.8893C11.9696 13.6148 12.7798 13.3382 13.32 12.7849C13.8601 12.2316 14.1302 11.4017 14.1302 10.2952V3.45362C14.1302 2.34709 13.8601 1.5172 13.32 0.963949C12.7798 0.410672 11.9696 0.134033 10.8893 0.134033H3.90124C2.82097 0.134033 2.01077 0.410672 1.47063 0.963949C0.930478 1.5172 0.6604 2.34709 0.6604 3.45362V10.2952C0.6604 11.4017 0.930478 12.2316 1.47063 12.7849C2.01077 13.3382 2.82097 13.6148 3.90124 13.6148ZM3.92152 11.0644C3.43537 11.0644 3.1923 10.808 3.1923 10.2952V3.43339C3.1923 2.93411 3.43537 2.68447 3.92152 2.68447H10.8488C11.3484 2.68447 11.5983 2.93411 11.5983 3.43339V10.2952C11.5983 10.808 11.3484 11.0644 10.8488 11.0644H3.92152ZM19.9434 13.6148H26.9315C28.0253 13.6148 28.8389 13.3382 29.3723 12.7849C29.9057 12.2316 30.1724 11.4017 30.1724 10.2952V3.45362C30.1724 2.34709 29.9057 1.5172 29.3723 0.963949C28.8389 0.410672 28.0253 0.134033 26.9315 0.134033H19.9434C18.8632 0.134033 18.053 0.410672 17.5128 0.963949C16.9727 1.5172 16.7026 2.34709 16.7026 3.45362V10.2952C16.7026 11.4017 16.9727 12.2316 17.5128 12.7849C18.053 13.3382 18.8632 13.6148 19.9434 13.6148ZM19.984 11.0644C19.4843 11.0644 19.2345 10.808 19.2345 10.2952V3.43339C19.2345 2.93411 19.4843 2.68447 19.984 2.68447H26.9113C27.3974 2.68447 27.6405 2.93411 27.6405 3.43339V10.2952C27.6405 10.808 27.3974 11.0644 26.9113 11.0644H19.984ZM3.90124 29.646H10.8893C11.9696 29.646 12.7798 29.3727 13.32 28.8262C13.8601 28.2797 14.1302 27.4464 14.1302 26.3264V19.4848C14.1302 18.3783 13.8601 17.5518 13.32 17.0053C12.7798 16.4587 11.9696 16.1855 10.8893 16.1855H3.90124C2.82097 16.1855 2.01077 16.4587 1.47063 17.0053C0.930478 17.5518 0.6604 18.3783 0.6604 19.4848V26.3264C0.6604 27.4464 0.930478 28.2797 1.47063 28.8262C2.01077 29.3727 2.82097 29.646 3.90124 29.646ZM3.92152 27.0956C3.43537 27.0956 3.1923 26.8459 3.1923 26.3466V19.4848C3.1923 18.972 3.43537 18.7156 3.92152 18.7156H10.8488C11.3484 18.7156 11.5983 18.972 11.5983 19.4848V26.3466C11.5983 26.8459 11.3484 27.0956 10.8488 27.0956H3.92152ZM19.9434 29.646H26.9315C28.0253 29.646 28.8389 29.3727 29.3723 28.8262C29.9057 28.2797 30.1724 27.4464 30.1724 26.3264V19.4848C30.1724 18.3783 29.9057 17.5518 29.3723 17.0053C28.8389 16.4587 28.0253 16.1855 26.9315 16.1855H19.9434C18.8632 16.1855 18.053 16.4587 17.5128 17.0053C16.9727 17.5518 16.7026 18.3783 16.7026 19.4848V26.3264C16.7026 27.4464 16.9727 28.2797 17.5128 28.8262C18.053 29.3727 18.8632 29.646 19.9434 29.646ZM19.984 27.0956C19.4843 27.0956 19.2345 26.8459 19.2345 26.3466V19.4848C19.2345 18.972 19.4843 18.7156 19.984 18.7156H26.9113C27.3974 18.7156 27.6405 18.972 27.6405 19.4848V26.3466C27.6405 26.8459 27.3974 27.0956 26.9113 27.0956H19.984Z" fill="#EF4136"/>
</svg>
