<svg width="31" height="30" viewBox="0 0 31 30" fill="none" xmlns="http://www.w3.org/2000/svg">
<path d="M15.407 29.8706C17.4293 29.8706 19.3297 29.4866 21.1084 28.7186C22.887 27.9507 24.4555 26.8841 25.8139 25.5188C27.1722 24.1535 28.2381 22.581 29.0117 20.8012C29.7853 19.0215 30.1721 17.126 30.1721 15.1146C30.1721 13.1033 29.7853 11.2077 29.0117 9.42798C28.2381 7.64824 27.1691 6.07574 25.8047 4.71047C24.4403 3.34518 22.8687 2.27856 21.0901 1.51061C19.3115 0.742632 17.411 0.358643 15.3887 0.358643C13.3786 0.358643 11.4843 0.742632 9.70563 1.51061C7.92699 2.27856 6.36154 3.34518 5.00927 4.71047C3.65703 6.07574 2.59411 7.64824 1.82053 9.42798C1.04695 11.2077 0.660156 13.1033 0.660156 15.1146C0.660156 17.126 1.04695 19.0215 1.82053 20.8012C2.59411 22.581 3.66007 24.1535 5.0184 25.5188C6.37676 26.8841 7.94526 27.9507 9.72389 28.7186C11.5025 29.4866 13.3969 29.8706 15.407 29.8706ZM15.407 27.0913C13.7502 27.0913 12.2 26.7835 10.7564 26.1679C9.31272 25.5523 8.04574 24.6959 6.95542 23.5988C5.86509 22.5017 5.01233 21.2279 4.39712 19.7773C3.78191 18.3267 3.47431 16.7725 3.47431 15.1146C3.47431 13.4568 3.77887 11.9026 4.38799 10.4519C4.99711 9.00135 5.84683 7.72749 6.93716 6.63038C8.02748 5.53328 9.29445 4.67694 10.7381 4.06135C12.1817 3.44577 13.7319 3.13797 15.3887 3.13797C17.0577 3.13797 18.614 3.44577 20.0576 4.06135C21.5012 4.67694 22.7713 5.53328 23.8677 6.63038C24.9641 7.72749 25.823 9.00135 26.4443 10.4519C27.0656 11.9026 27.3763 13.4568 27.3763 15.1146C27.3763 16.7725 27.0686 18.3267 26.4534 19.7773C25.8382 21.2279 24.9854 22.5017 23.8951 23.5988C22.8048 24.6959 21.5348 25.5523 20.085 26.1679C18.6353 26.7835 17.076 27.0913 15.407 27.0913Z" fill="#313131"/>
<path d="M15.4072 23.3795C15.8945 23.3795 16.1381 23.1297 16.1381 22.6299V21.6608C17.2345 21.551 18.1665 21.1792 18.934 20.5454C19.7015 19.9115 20.0852 19.0338 20.0852 17.9123C20.0852 16.9128 19.7654 16.1082 19.1259 15.4987C18.4863 14.8892 17.5391 14.4809 16.2843 14.2736L16.1381 14.2553V10.4521C16.5889 10.5496 16.9696 10.7355 17.2802 11.0098C17.5909 11.284 17.8193 11.6528 17.9655 12.116C18.1604 12.628 18.4893 12.884 18.9523 12.884C19.2324 12.884 19.4578 12.7956 19.6284 12.6188C19.7989 12.4421 19.8842 12.2135 19.8842 11.9331C19.8842 11.86 19.8781 11.7869 19.8659 11.7137C19.8538 11.6406 19.8355 11.5614 19.8111 11.476C19.6162 10.6837 19.1837 10.0376 18.5137 9.53781C17.8437 9.03803 17.0518 8.73328 16.1381 8.62356V7.6179C16.1381 7.13028 15.8945 6.88647 15.4072 6.88647C14.9077 6.88647 14.658 7.13028 14.658 7.6179V8.62356C13.5493 8.74546 12.6509 9.12945 11.9626 9.77552C11.2743 10.4216 10.9301 11.2444 10.9301 12.244C10.9301 13.1826 11.2408 13.9384 11.8621 14.5113C12.4834 15.0843 13.391 15.517 14.5849 15.8096L14.658 15.8278V19.8323C14.061 19.7347 13.5981 19.5366 13.2691 19.238C12.9402 18.9393 12.7088 18.5767 12.5748 18.1501C12.4773 17.8819 12.3463 17.6838 12.1819 17.5558C12.0174 17.4278 11.8194 17.3638 11.588 17.3638C11.32 17.3638 11.0976 17.4522 10.921 17.6289C10.7443 17.8057 10.656 18.0281 10.656 18.2963C10.656 18.3817 10.6621 18.4609 10.6743 18.534C10.6865 18.6072 10.7047 18.6864 10.7291 18.7717C10.9484 19.5885 11.4235 20.2437 12.1544 20.7373C12.8854 21.2311 13.7199 21.5328 14.658 21.6425V22.6299C14.658 23.1297 14.9077 23.3795 15.4072 23.3795ZM16.1381 16.2118L16.4487 16.285C17.0822 16.4678 17.5147 16.7025 17.7462 16.989C17.9777 17.2754 18.0934 17.6259 18.0934 18.0403C18.0934 18.5036 17.9381 18.8967 17.6274 19.2197C17.3168 19.5428 16.8203 19.7469 16.1381 19.8323V16.2118ZM14.658 13.8531L14.5483 13.8165C13.9757 13.6337 13.5585 13.4051 13.2966 13.1308C13.0346 12.8565 12.9037 12.5244 12.9037 12.1343C12.9037 11.7442 13.056 11.3968 13.3605 11.092C13.6651 10.7873 14.0976 10.574 14.658 10.4521V13.8531Z" fill="#313131"/>
</svg>
