<svg width="35" height="30" viewBox="0 0 35 30" fill="none" xmlns="http://www.w3.org/2000/svg">
<path d="M17.646 16.4658C18.1926 16.4658 18.7525 16.398 19.3258 16.2622C19.8991 16.1265 20.5233 15.9129 21.1984 15.6213L33.5274 10.3433C33.9775 10.1522 34.3123 9.88581 34.5318 9.544C34.7514 9.20217 34.8613 8.84025 34.8613 8.45823C34.8613 8.07619 34.7514 7.71175 34.5318 7.3649C34.3123 7.01805 33.9775 6.74911 33.5274 6.55811L21.1984 1.28005C20.5233 0.998546 19.8991 0.78742 19.3258 0.64667C18.7525 0.50592 18.1926 0.435547 17.646 0.435547C17.0995 0.435547 16.5396 0.50592 15.9663 0.64667C15.393 0.78742 14.7688 0.998546 14.0937 1.28005L1.76483 6.55811C1.31475 6.74911 0.979869 7.01805 0.760185 7.3649C0.540504 7.71175 0.430664 8.07619 0.430664 8.45823C0.430664 8.84025 0.540504 9.20217 0.760185 9.544C0.979869 9.88581 1.31475 10.1522 1.76483 10.3433L14.0937 15.6213C14.7688 15.9129 15.393 16.1265 15.9663 16.2622C16.5396 16.398 17.0995 16.4658 17.646 16.4658ZM17.646 14.3244C17.2388 14.3244 16.8209 14.2716 16.3923 14.1661C15.9636 14.0605 15.4867 13.8921 14.9617 13.6609L3.58118 8.82013C3.37758 8.72966 3.27578 8.60903 3.27578 8.45823C3.27578 8.29736 3.37758 8.17169 3.58118 8.0812L14.9617 3.24046C15.4867 3.00924 15.9636 2.84084 16.3923 2.73528C16.8209 2.62972 17.2388 2.57694 17.646 2.57694C18.064 2.57694 18.4846 2.62972 18.9079 2.73528C19.3312 2.84084 19.8053 3.00924 20.3304 3.24046L31.7109 8.0812C31.9253 8.17169 32.0325 8.29736 32.0325 8.45823C32.0325 8.60903 31.9253 8.72966 31.7109 8.82013L20.3304 13.6609C19.8053 13.8921 19.3312 14.0605 18.9079 14.1661C18.4846 14.2716 18.064 14.3244 17.646 14.3244ZM5.18862 17.3405C5.18862 18.3056 5.48331 19.1978 6.07268 20.0172C6.66206 20.8366 7.50595 21.5554 8.60435 22.1737C9.70275 22.792 11.0155 23.272 12.5425 23.6138C14.0696 23.9556 15.7707 24.1266 17.646 24.1266C19.5214 24.1266 21.2226 23.9556 22.7496 23.6138C24.2766 23.272 25.5894 22.792 26.6878 22.1737C27.7861 21.5554 28.63 20.8366 29.2194 20.0172C29.8088 19.1978 30.1035 18.3056 30.1035 17.3405V11.0369H27.7888V17.3405C27.7888 17.9939 27.5477 18.6097 27.0655 19.1878C26.5833 19.7659 25.8974 20.2711 25.008 20.7033C24.1186 21.1356 23.0523 21.475 21.8092 21.7213C20.5662 21.9676 19.1785 22.0907 17.646 22.0907C16.1244 22.0907 14.7393 21.9676 13.4909 21.7213C12.2425 21.475 11.1735 21.1356 10.2841 20.7033C9.39467 20.2711 8.70884 19.7659 8.22663 19.1878C7.7444 18.6097 7.50328 17.9939 7.50328 17.3405V11.0369H5.18862V17.3405ZM17.7104 9.84558C18.3748 9.84558 18.9963 9.7174 19.5749 9.46104C20.1536 9.20468 20.4429 8.87041 20.4429 8.45823C20.4429 8.04603 20.1536 7.71426 19.5749 7.46292C18.9963 7.21159 18.3748 7.08592 17.7104 7.08592C17.0352 7.08592 16.4084 7.21159 15.8297 7.46292C15.251 7.71426 14.9617 8.04603 14.9617 8.45823C14.9617 8.87041 15.251 9.20468 15.8297 9.46104C16.4084 9.7174 17.0352 9.84558 17.7104 9.84558ZM10.2037 13.0275L17.4853 9.3027L16.6977 7.93042L8.35521 12.1076L10.2037 13.0275ZM8.35521 24.8353H10.2037V13.0275L8.35521 12.183V24.8353ZM7.3586 25.2123V28.3189C7.3586 28.8014 7.51667 29.1935 7.83281 29.4951C8.14892 29.7967 8.56953 29.9475 9.09462 29.9475H9.44825C9.97334 29.9475 10.3939 29.7967 10.7101 29.4951C11.0262 29.1935 11.1842 28.8014 11.1842 28.3189V25.2123C11.1842 24.7298 11.0262 24.3377 10.7101 24.0361C10.3939 23.7345 9.97334 23.5837 9.44825 23.5837H9.09462C8.56953 23.5837 8.14892 23.7345 7.83281 24.0361C7.51667 24.3377 7.3586 24.7298 7.3586 25.2123Z" fill="#313131"/>
</svg>
