<svg width="54" height="61" viewBox="0 0 54 61" fill="none" xmlns="http://www.w3.org/2000/svg">
<path d="M25.8825 45.2035C26.4511 45.3796 27.0292 45.4936 27.5978 45.5454C28.1665 45.5972 28.7446 45.6283 29.3132 45.6283C30.7443 45.6283 32.1185 45.4314 33.4359 45.048C34.7532 44.6542 35.9947 44.0946 37.1604 43.3692C38.3167 42.6438 39.3592 41.7526 40.269 40.7059C41.1788 39.6592 41.918 38.4986 42.4961 37.2239L53.2149 47.9186C51.8597 49.8357 50.2959 51.556 48.5237 53.0793C46.7514 54.6027 44.8465 55.8981 42.7899 56.9655C40.7334 58.0329 38.5725 58.8412 36.3075 59.3801C34.0424 59.9293 31.711 60.2091 29.3132 60.2091C25.2759 60.2091 21.4755 59.463 17.9215 57.9707C14.3676 56.4784 11.259 54.4058 8.59589 51.7529C5.93278 49.0896 3.8383 45.9289 2.30298 42.2604C0.76766 38.5919 0 34.5606 0 30.1564C0 25.6588 0.76766 21.5447 2.30298 17.814C3.8383 14.0937 5.94226 10.9226 8.59589 8.29041C11.259 5.66857 14.3676 3.62705 17.9215 2.17623C21.4755 0.725411 25.2759 0 29.3132 0C31.7015 0 34.0424 0.279801 36.3359 0.849766C38.6199 1.41973 40.7902 2.22805 42.8468 3.29544C44.9034 4.36283 46.8178 5.6582 48.609 7.20229C50.3907 8.74638 51.9639 10.477 53.3287 12.3838L25.8825 45.2035ZM33.379 15.2647C32.6966 15.016 32.0332 14.8606 31.3698 14.788C30.7064 14.7155 30.024 14.6844 29.3038 14.6844C27.3041 14.6844 25.4181 15.0471 23.6458 15.7725C21.8736 16.4979 20.3382 17.5342 19.0399 18.8814C17.732 20.2286 16.7084 21.8556 15.9597 23.752C15.211 25.6484 14.8319 27.7832 14.8319 30.1564C14.8319 30.6849 14.8604 31.2859 14.9078 31.9699C14.9646 32.6435 15.0499 33.3274 15.1731 34.0218C15.2963 34.7161 15.448 35.3793 15.628 36.0115C15.8081 36.654 16.0356 37.2136 16.3199 37.711L33.379 15.2647Z" fill="#EF4136"/>
</svg>
