<svg width="205" height="75" viewBox="0 0 205 75" fill="none" xmlns="http://www.w3.org/2000/svg">
<g clip-path="url(#clip0_2_510)">
<path d="M19.1077 49.451C19.5275 49.5701 19.9543 49.6472 20.3741 49.6823C20.7939 49.7173 21.2206 49.7384 21.6404 49.7384C22.6969 49.7384 23.7114 49.6052 24.684 49.3458C25.6565 49.0795 26.573 48.701 27.4336 48.2103C28.2872 47.7197 29.0568 47.1169 29.7285 46.4089C30.4002 45.701 30.9459 44.9159 31.3727 44.0538L39.2858 51.2874C38.2853 52.5842 37.1309 53.7477 35.8225 54.7781C34.5142 55.8085 33.1078 56.6846 31.5896 57.4066C30.0713 58.1286 28.4761 58.6753 26.8039 59.0398C25.1317 59.4113 23.4106 59.6005 21.6404 59.6005C18.6599 59.6005 15.8543 59.0958 13.2305 58.0865C10.6068 57.0772 8.31194 55.6753 6.3459 53.8809C4.37986 52.0795 2.83362 49.9416 1.70017 47.4603C0.566723 44.979 0 42.2524 0 39.2734C0 36.2314 0.566723 33.4486 1.70017 30.9253C2.83362 28.4089 4.38686 26.2641 6.3459 24.4837C8.31194 22.7103 10.6068 21.3295 13.2305 20.3482C15.8543 19.3669 18.6599 18.8762 21.6404 18.8762C23.4036 18.8762 25.1317 19.0655 26.8249 19.451C28.5111 19.8365 30.1133 20.3832 31.6316 21.1052C33.1498 21.8272 34.5631 22.7033 35.8855 23.7477C37.2008 24.7921 38.3623 25.9627 39.3698 27.2524L19.1077 49.451ZM24.642 29.201C24.1382 29.0328 23.6485 28.9276 23.1587 28.8786C22.6689 28.8295 22.1652 28.8085 21.6334 28.8085C20.1572 28.8085 18.7648 29.0538 17.4565 29.5444C16.1481 30.0351 15.0147 30.736 14.0561 31.6472C13.0906 32.5585 12.335 33.6589 11.7823 34.9416C11.2295 36.2243 10.9497 37.6683 10.9497 39.2734C10.9497 39.6309 10.9706 40.0374 11.0056 40.5C11.0476 40.9557 11.1106 41.4183 11.2015 41.8879C11.2925 42.3575 11.4044 42.8061 11.5374 43.2337C11.6703 43.6683 11.8382 44.0468 12.0481 44.3832L24.642 29.201Z" fill="#EF4136"/>
<path d="M85.4144 58.8786H82.8047L78.6138 53.5936C77.5853 54.4347 76.4938 55.2197 75.3463 55.9487C74.1989 56.6777 72.9955 57.3155 71.7291 57.8553C70.4627 58.395 69.1614 58.8225 67.832 59.1309C66.5027 59.4394 65.1453 59.6006 63.774 59.6006C60.7934 59.6006 57.9878 59.0889 55.3641 58.0725C52.7404 57.0562 50.4455 55.6403 48.4794 53.8249C46.5134 52.0165 44.9672 49.8646 43.8337 47.3833C42.7003 44.902 42.1335 42.1964 42.1335 39.2735C42.1335 36.3716 42.7003 33.673 43.8337 31.1777C44.9672 28.6824 46.5204 26.5235 48.4794 24.701C50.4455 22.8786 52.7404 21.4487 55.3641 20.4183C57.9878 19.388 60.7934 18.8693 63.774 18.8693C64.7255 18.8693 65.705 18.9394 66.7196 19.0866C67.7341 19.2338 68.7206 19.4651 69.6861 19.7875C70.6516 20.1099 71.5542 20.5375 72.3938 21.0632C73.2404 21.5889 73.947 22.2408 74.5277 23.0048V5.0188H85.4074V58.8786H85.4144ZM74.5347 39.2735C74.5347 37.9277 74.2479 36.6309 73.6812 35.3693C73.1144 34.1076 72.3448 32.9931 71.3653 32.0258C70.3858 31.0515 69.2453 30.2735 67.944 29.6847C66.6356 29.0959 65.2503 28.8015 63.767 28.8015C62.2907 28.8015 60.8984 29.0398 59.59 29.5235C58.2817 30.0071 57.1482 30.694 56.1897 31.5912C55.2242 32.4884 54.4685 33.5889 53.9158 34.8856C53.3631 36.1824 53.0832 37.6403 53.0832 39.2735C53.0832 40.6894 53.3631 42.0281 53.9158 43.3038C54.4685 44.5795 55.2312 45.687 56.1897 46.6473C57.1552 47.6076 58.2887 48.3646 59.59 48.9113C60.8984 49.4651 62.2837 49.7384 63.767 49.7384C65.2433 49.7384 66.6356 49.444 67.944 48.8552C69.2523 48.2665 70.3928 47.4884 71.3653 46.5141C72.3378 45.5398 73.1144 44.4253 73.6812 43.1707C74.2479 41.916 74.5347 40.6123 74.5347 39.2735Z" fill="black"/>
<path d="M106.383 9.88315C106.383 10.7944 106.194 11.6425 105.809 12.4345C105.425 13.2266 104.907 13.9135 104.249 14.5023C103.592 15.0911 102.822 15.5607 101.933 15.9042C101.052 16.2546 100.107 16.4229 99.1067 16.4229C98.1062 16.4229 97.1616 16.2476 96.2801 15.9042C95.3985 15.5537 94.6289 15.0911 93.9852 14.5023C93.3415 13.9135 92.8238 13.2266 92.4389 12.4345C92.0541 11.6425 91.8652 10.7944 91.8652 9.88315C91.8652 8.99296 92.0541 8.15184 92.4389 7.34576C92.8238 6.53969 93.3345 5.84576 93.9852 5.25698C94.6289 4.66819 95.3985 4.20558 96.2801 3.85511C97.1616 3.50464 98.1062 3.33643 99.1067 3.33643C100.107 3.33643 101.052 3.51165 101.933 3.85511C102.815 4.20558 103.592 4.66819 104.249 5.25698C104.907 5.84576 105.432 6.53969 105.809 7.34576C106.194 8.14483 106.383 8.99296 106.383 9.88315ZM104.522 58.8785H93.6424V20.3481H104.522V58.8785Z" fill="black"/>
<path d="M126.477 58.8785H115.675V30.1332H110.413V20.3481H115.675V18.5117C115.675 16.1355 116.171 13.9065 117.158 11.8177C118.144 9.72895 119.509 7.91353 121.23 6.36446C122.958 4.81539 124.966 3.59577 127.261 2.69858C129.556 1.80138 132.012 1.35278 134.621 1.35278H142.73V11.1378H134.621C133.46 11.1378 132.382 11.3271 131.396 11.6986C130.409 12.0701 129.549 12.5888 128.821 13.2476C128.093 13.9065 127.52 14.6846 127.1 15.5888C126.68 16.486 126.47 17.4673 126.47 18.5187V20.3551H139.722V30.1402H126.477V58.8785Z" fill="black"/>
<path d="M154.73 73.5562V63.666L160.747 63.7361C161.803 63.7361 162.818 63.5819 163.79 63.2665C164.763 62.951 165.672 62.5235 166.498 61.9697C167.33 61.416 168.058 60.7641 168.695 60.0071C169.331 59.2501 169.842 58.43 170.241 57.5398C169.052 57.9954 167.848 58.451 166.624 58.9066C165.399 59.3623 164.161 59.5866 162.923 59.5866C160.313 59.5866 157.857 59.166 155.562 58.3249C153.267 57.4837 151.259 56.2922 149.531 54.7431C147.803 53.194 146.446 51.3155 145.459 49.0936C144.473 46.8786 143.976 44.3903 143.976 41.6286V20.3342H154.737V41.6286C154.737 42.9954 154.953 44.187 155.387 45.2104C155.821 46.2338 156.409 47.0819 157.15 47.7618C157.892 48.4417 158.753 48.9534 159.739 49.2898C160.726 49.6263 161.789 49.7945 162.923 49.7945C164.028 49.7945 165.078 49.5632 166.071 49.0936C167.058 48.6239 167.925 48.0071 168.66 47.2431C169.401 46.4791 169.975 45.6099 170.402 44.6356C170.822 43.6613 171.039 42.666 171.039 41.6286V20.3342H181.918V54.0071C181.89 56.7197 181.31 59.2571 180.176 61.6333C179.043 64.0094 177.489 66.0842 175.53 67.8576C173.564 69.6309 171.277 71.0328 168.667 72.0632C166.057 73.0936 163.258 73.6122 160.278 73.6122L154.73 73.5562Z" fill="black"/>
<path d="M6.08716 70.3527C6.08716 68.7966 6.96873 67.7312 8.33306 67.7312C9.69739 67.7312 10.523 68.7476 10.523 70.2476V70.563H6.91975C6.94074 71.6004 7.51446 72.2102 8.40302 72.2102C9.08169 72.2102 9.50149 71.8877 9.63442 71.5863L9.65541 71.5443H10.46L10.453 71.5793C10.2781 72.2592 9.56445 72.9321 8.38903 72.9321C6.95473 72.9391 6.08716 71.9298 6.08716 70.3527ZM6.92676 69.9251H9.69739C9.61343 68.9298 9.0677 68.4602 8.32606 68.4602C7.58442 68.4602 7.0177 68.9648 6.92676 69.9251Z" fill="#231F20"/>
<path d="M11.5303 70.3387V70.3317C11.5303 68.7546 12.3559 67.7312 13.6292 67.7312C14.3149 67.7312 14.9166 68.0747 15.1895 68.6144H15.2665V65.8247H16.0781V72.8481H15.2665V72.049H15.1895C14.8816 72.6098 14.3289 72.9392 13.6292 72.9392C12.3559 72.9392 11.5303 71.9088 11.5303 70.3387ZM15.2804 70.3387V70.3317C15.2804 69.1682 14.7207 68.4532 13.8112 68.4532C12.8946 68.4532 12.3559 69.1612 12.3559 70.3317V70.3387C12.3559 71.5093 12.9016 72.2172 13.8112 72.2172C14.7207 72.2172 15.2804 71.5023 15.2804 70.3387Z" fill="#231F20"/>
<path d="M17.5825 71.0748V67.8225H18.3941V70.8786C18.3941 71.7828 18.716 72.2174 19.5206 72.2174C20.4021 72.2174 20.8709 71.6777 20.8709 70.7945V67.8225H21.6755V72.8482H20.8709V72.0982H20.794C20.5491 72.6379 20.0383 72.9393 19.3107 72.9393C18.1632 72.9393 17.5825 72.2664 17.5825 71.0748Z" fill="#231F20"/>
<path d="M22.9277 70.3247V70.3177C22.9277 68.7546 23.8163 67.7383 25.2226 67.7383C26.44 67.7383 27.1677 68.4392 27.3146 69.3364L27.3216 69.3644H26.517L26.51 69.3504C26.384 68.8528 25.9363 68.4532 25.2156 68.4532C24.3131 68.4532 23.7463 69.1822 23.7463 70.3107V70.3177C23.7463 71.4743 24.3201 72.2172 25.2156 72.2172C25.8873 72.2172 26.3141 71.9158 26.503 71.3621L26.51 71.3341L27.3076 71.3271L27.3006 71.3761C27.0977 72.2873 26.426 72.9322 25.2226 72.9322C23.8233 72.9392 22.9277 71.9158 22.9277 70.3247Z" fill="#231F20"/>
<path d="M28.2102 71.4462V71.4392C28.2102 70.542 28.8679 70.0233 30.0363 69.9532L31.4706 69.8621V69.4065C31.4706 68.7897 31.0928 68.4532 30.3442 68.4532C29.7425 68.4532 29.3506 68.6775 29.2177 69.0701L29.2107 69.0841H28.4061L28.4131 69.056C28.546 68.271 29.3017 67.7383 30.3722 67.7383C31.5966 67.7383 32.2752 68.3691 32.2752 69.4135V72.8551H31.4706V72.1121H31.3937C31.0788 72.6448 30.5541 72.9392 29.8824 72.9392C28.9309 72.9392 28.2102 72.3574 28.2102 71.4462ZM30.0503 72.2313C30.8689 72.2313 31.4706 71.6916 31.4706 70.9696V70.514L30.1343 70.5981C29.3716 70.6472 29.0358 70.9135 29.0358 71.4182V71.4252C29.0358 71.9369 29.4696 72.2313 30.0503 72.2313Z" fill="#231F20"/>
<path d="M34.0804 71.5445V68.4954H33.2898V67.8225H34.0804V66.5188H34.913V67.8225H36.0115V68.4954H34.913V71.3412C34.913 71.93 35.1159 72.1683 35.6406 72.1683C35.7876 72.1683 35.8645 72.1613 36.0115 72.1473V72.8342C35.8505 72.8623 35.7036 72.8833 35.5427 72.8833C34.5072 72.8903 34.0804 72.5048 34.0804 71.5445Z" fill="#231F20"/>
<path d="M37.0889 66.2944C37.0889 65.986 37.3407 65.7336 37.6486 65.7336C37.9564 65.7336 38.2083 65.986 38.2083 66.2944C38.2083 66.6028 37.9564 66.8551 37.6486 66.8551C37.3407 66.8551 37.0889 66.6028 37.0889 66.2944ZM37.2358 67.8224H38.0404V72.8481H37.2358V67.8224Z" fill="#231F20"/>
<path d="M39.3208 70.3387V70.3317C39.3208 68.7195 40.2024 67.7312 41.6297 67.7312C43.057 67.7312 43.9385 68.7125 43.9385 70.3317V70.3387C43.9385 71.9438 43.057 72.9391 41.6297 72.9391C40.2024 72.9391 39.3208 71.9508 39.3208 70.3387ZM43.113 70.3387V70.3317C43.113 69.1401 42.5812 68.4532 41.6297 68.4532C40.6781 68.4532 40.1464 69.1401 40.1464 70.3317V70.3387C40.1464 71.5233 40.6781 72.2172 41.6297 72.2172C42.5812 72.2172 43.113 71.5233 43.113 70.3387Z" fill="#231F20"/>
<path d="M45.198 67.8224H46.0026V68.5794H46.0796C46.3314 68.0467 46.8002 67.7383 47.5349 67.7383C48.6613 67.7383 49.284 68.4042 49.284 69.5958V72.8481H48.4794V69.792C48.4794 68.8878 48.1086 68.4532 47.311 68.4532C46.5134 68.4532 46.0026 68.993 46.0026 69.8761V72.8481H45.198V67.8224Z" fill="#231F20"/>
<path d="M53.4329 67.8223H54.2445V68.5863H54.3214C54.5453 68.0466 55.0211 67.7312 55.6718 67.7312C56.3504 67.7312 56.8262 68.0887 57.0571 68.6144H57.1341C57.4069 68.0817 57.9736 67.7312 58.6663 67.7312C59.6878 67.7312 60.2615 68.32 60.2615 69.3714V72.848H59.4499V69.5606C59.4499 68.8176 59.1141 68.4532 58.4074 68.4532C57.7078 68.4532 57.253 68.9789 57.253 69.6167V72.848H56.4484V69.4345C56.4484 68.8387 56.0426 68.4532 55.4059 68.4532C54.7482 68.4532 54.2515 69.0279 54.2515 69.7359V72.848H53.4399V67.8223H53.4329Z" fill="#231F20"/>
<path d="M61.416 71.4462V71.4392C61.416 70.542 62.0737 70.0233 63.2421 69.9532L64.6764 69.8621V69.4065C64.6764 68.7897 64.2986 68.4532 63.55 68.4532C62.9483 68.4532 62.5565 68.6775 62.4235 69.0701L62.4165 69.0841H61.6119L61.6189 69.056C61.7519 68.271 62.5075 67.7383 63.578 67.7383C64.8024 67.7383 65.481 68.3691 65.481 69.4135V72.8551H64.6764V72.1121H64.5995C64.2846 72.6448 63.7599 72.9392 63.0882 72.9392C62.1367 72.9392 61.416 72.3574 61.416 71.4462ZM63.2561 72.2313C64.0747 72.2313 64.6764 71.6916 64.6764 70.9696V70.514L63.3401 70.5981C62.5774 70.6472 62.2416 70.9135 62.2416 71.4182V71.4252C62.2416 71.9369 62.6754 72.2313 63.2561 72.2313Z" fill="#231F20"/>
<path d="M66.9644 67.8224H67.776V68.5794H67.8529C68.1048 68.0467 68.5736 67.7383 69.3082 67.7383C70.4347 67.7383 71.0574 68.4042 71.0574 69.5958V72.8481H70.2527V69.792C70.2527 68.8878 69.8819 68.4532 69.0843 68.4532C68.2867 68.4532 67.783 68.993 67.783 69.8761V72.8481H66.9714V67.8224H66.9644Z" fill="#231F20"/>
<path d="M72.2258 71.4462V71.4392C72.2258 70.542 72.8835 70.0233 74.0519 69.9532L75.4862 69.8621V69.4065C75.4862 68.7897 75.1084 68.4532 74.3598 68.4532C73.7581 68.4532 73.3663 68.6775 73.2333 69.0701L73.2263 69.0841H72.4217L72.4287 69.056C72.5617 68.271 73.3173 67.7383 74.3878 67.7383C75.6122 67.7383 76.2908 68.3691 76.2908 69.4135V72.8551H75.4862V72.1121H75.4093C75.0944 72.6448 74.5697 72.9392 73.898 72.9392C72.9465 72.9392 72.2258 72.3574 72.2258 71.4462ZM74.0659 72.2313C74.8845 72.2313 75.4862 71.6916 75.4862 70.9696V70.514L74.1499 70.5981C73.3873 70.6472 73.0514 70.9135 73.0514 71.4182V71.4252C73.0514 71.9369 73.4852 72.2313 74.0659 72.2313Z" fill="#231F20"/>
<path d="M77.732 73.2546L77.739 73.2476H78.5716L78.5786 73.2546C78.6696 73.6331 79.1104 73.9065 79.831 73.9065C80.7266 73.9065 81.2583 73.4789 81.2583 72.7429V71.7266H81.1813C80.8665 72.2803 80.2998 72.5958 79.6141 72.5958C78.3197 72.5958 77.5151 71.5864 77.5151 70.1775V70.1705C77.5151 68.7616 78.3197 67.7383 79.6351 67.7383C80.3418 67.7383 80.8875 68.0887 81.1953 68.6565H81.2513V67.8294H82.0629V72.785C82.0629 73.9065 81.2023 74.6285 79.831 74.6285C78.6276 74.6215 77.858 74.0747 77.732 73.2546ZM81.2863 70.1705V70.1635C81.2863 69.1682 80.7266 68.4532 79.803 68.4532C78.8725 68.4532 78.3547 69.1682 78.3547 70.1635V70.1705C78.3547 71.1658 78.8725 71.8668 79.803 71.8668C80.7336 71.8668 81.2863 71.1729 81.2863 70.1705Z" fill="#231F20"/>
<path d="M83.3223 70.3527C83.3223 68.7966 84.2038 67.7312 85.5682 67.7312C86.9325 67.7312 87.7581 68.7476 87.7581 70.2476V70.563H84.1549C84.1759 71.6004 84.7496 72.2102 85.6381 72.2102C86.3168 72.2102 86.7366 71.8877 86.8695 71.5863L86.8905 71.5443H87.6951L87.6881 71.5793C87.5132 72.2592 86.7996 72.9321 85.6241 72.9321C84.1898 72.9391 83.3223 71.9298 83.3223 70.3527ZM84.1689 69.9251H86.9395C86.8555 68.9298 86.3098 68.4602 85.5682 68.4602C84.8195 68.4602 84.2528 68.9648 84.1689 69.9251Z" fill="#231F20"/>
<path d="M89.0176 67.8223H89.8292V68.5863H89.9061C90.13 68.0466 90.6058 67.7312 91.2565 67.7312C91.9351 67.7312 92.4109 68.0887 92.6418 68.6144H92.7188C92.9916 68.0817 93.5584 67.7312 94.251 67.7312C95.2725 67.7312 95.8462 68.32 95.8462 69.3714V72.848H95.0346V69.5606C95.0346 68.8176 94.6988 68.4532 93.9921 68.4532C93.2925 68.4532 92.8377 68.9789 92.8377 69.6167V72.848H92.0331V69.4345C92.0331 68.8387 91.6273 68.4532 90.9906 68.4532C90.3329 68.4532 89.8362 69.0279 89.8362 69.7359V72.848H89.0246V67.8223H89.0176Z" fill="#231F20"/>
<path d="M97.0496 70.3527C97.0496 68.7966 97.9311 67.7312 99.2955 67.7312C100.653 67.7312 101.485 68.7476 101.485 70.2476V70.563H97.8821C97.9031 71.6004 98.4769 72.2102 99.3654 72.2102C100.044 72.2102 100.464 71.8877 100.597 71.5863L100.618 71.5443H101.429L101.422 71.5793C101.248 72.2592 100.534 72.9321 99.3584 72.9321C97.9101 72.9391 97.0496 71.9298 97.0496 70.3527ZM97.8891 69.9251H100.66C100.576 68.9298 100.03 68.4602 99.2885 68.4602C98.5468 68.4602 97.9801 68.9648 97.8891 69.9251Z" fill="#231F20"/>
<path d="M102.738 67.8224H103.55V68.5794H103.627C103.878 68.0467 104.347 67.7383 105.082 67.7383C106.208 67.7383 106.831 68.4042 106.831 69.5958V72.8481H106.019V69.792C106.019 68.8878 105.649 68.4532 104.851 68.4532C104.053 68.4532 103.543 68.993 103.543 69.8761V72.8481H102.731V67.8224H102.738Z" fill="#231F20"/>
<path d="M108.608 71.5445V68.4954H107.817V67.8225H108.608V66.5188H109.448V67.8225H110.546V68.4954H109.448V71.3412C109.448 71.93 109.65 72.1683 110.175 72.1683C110.322 72.1683 110.399 72.1613 110.546 72.1473V72.8342C110.385 72.8623 110.231 72.8833 110.077 72.8833C109.042 72.8903 108.608 72.5048 108.608 71.5445Z" fill="#231F20"/>
<path d="M114.429 67.8223H115.241V68.6214H115.318C115.626 68.0606 116.185 67.7312 116.878 67.7312C118.144 67.7312 118.977 68.7616 118.977 70.3317V70.3387C118.977 71.9158 118.151 72.9391 116.878 72.9391C116.192 72.9391 115.591 72.5957 115.318 72.056H115.241V74.5303H114.429V67.8223ZM118.144 70.3387V70.3317C118.144 69.1611 117.599 68.4532 116.689 68.4532C115.78 68.4532 115.22 69.1681 115.22 70.3317V70.3387C115.22 71.5022 115.78 72.2172 116.689 72.2172C117.599 72.2172 118.144 71.5092 118.144 70.3387Z" fill="#231F20"/>
<path d="M120.285 65.8247H121.097V72.8481H120.285V65.8247Z" fill="#231F20"/>
<path d="M122.349 71.4462V71.4392C122.349 70.542 123.007 70.0233 124.175 69.9532L125.61 69.8621V69.4065C125.61 68.7897 125.232 68.4532 124.483 68.4532C123.882 68.4532 123.49 68.6775 123.357 69.0701L123.35 69.0841H122.538L122.545 69.056C122.678 68.271 123.434 67.7383 124.504 67.7383C125.729 67.7383 126.407 68.3691 126.407 69.4135V72.8551H125.596V72.1121H125.519C125.204 72.6448 124.679 72.9392 124.008 72.9392C123.07 72.9392 122.349 72.3574 122.349 71.4462ZM124.189 72.2313C125.008 72.2313 125.61 71.6916 125.61 70.9696V70.514L124.273 70.5981C123.511 70.6472 123.175 70.9135 123.175 71.4182V71.4252C123.175 71.9369 123.609 72.2313 124.189 72.2313Z" fill="#231F20"/>
<path d="M128.22 71.5445V68.4954H127.429V67.8225H128.22V66.5188H129.059V67.8225H130.158V68.4954H129.059V71.3412C129.059 71.93 129.262 72.1683 129.787 72.1683C129.934 72.1683 130.011 72.1613 130.158 72.1473V72.8342C129.997 72.8623 129.843 72.8833 129.689 72.8833C128.646 72.8903 128.22 72.5048 128.22 71.5445Z" fill="#231F20"/>
<path d="M131.697 68.4953H130.864V67.8224H131.697V67.2616C131.697 66.2593 132.201 65.7756 133.152 65.7756C133.348 65.7756 133.523 65.7897 133.691 65.8247V66.4696C133.593 66.4485 133.46 66.4485 133.313 66.4485C132.739 66.4485 132.501 66.7359 132.501 67.2826V67.8154H133.642V68.4883H132.501V72.841H131.69V68.4953H131.697Z" fill="#231F20"/>
<path d="M134.342 70.3387V70.3317C134.342 68.7195 135.223 67.7312 136.65 67.7312C138.078 67.7312 138.959 68.7125 138.959 70.3317V70.3387C138.959 71.9438 138.078 72.9391 136.65 72.9391C135.223 72.9391 134.342 71.9508 134.342 70.3387ZM138.134 70.3387V70.3317C138.134 69.1401 137.602 68.4532 136.65 68.4532C135.706 68.4532 135.167 69.1401 135.167 70.3317V70.3387C135.167 71.5233 135.699 72.2172 136.65 72.2172C137.602 72.2172 138.134 71.5233 138.134 70.3387Z" fill="#231F20"/>
<path d="M140.219 67.8223H141.03V68.5653H141.1C141.289 68.0396 141.758 67.7312 142.436 67.7312C142.59 67.7312 142.758 67.7522 142.842 67.7663V68.5513C142.674 68.5233 142.52 68.5022 142.345 68.5022C141.576 68.5022 141.03 68.9929 141.03 69.7289V72.841H140.219V67.8223Z" fill="#231F20"/>
<path d="M143.941 67.8223H144.752V68.5863H144.829C145.053 68.0466 145.529 67.7312 146.18 67.7312C146.858 67.7312 147.334 68.0887 147.565 68.6144H147.642C147.908 68.0817 148.481 67.7312 149.174 67.7312C150.196 67.7312 150.769 68.32 150.769 69.3714V72.848H149.958V69.5606C149.958 68.8176 149.622 68.4532 148.915 68.4532C148.216 68.4532 147.761 68.9789 147.761 69.6167V72.848H146.949V69.4345C146.949 68.8387 146.543 68.4532 145.907 68.4532C145.249 68.4532 144.752 69.0279 144.752 69.7359V72.848H143.941V67.8223Z" fill="#231F20"/>
<path d="M197.129 15.0841C201.093 15.0841 204.307 11.8644 204.307 7.89252C204.307 3.92072 201.093 0.700928 197.129 0.700928C193.165 0.700928 189.95 3.92072 189.95 7.89252C189.95 11.8644 193.165 15.0841 197.129 15.0841Z" stroke="black" stroke-miterlimit="10"/>
<path d="M194.176 3.48364H197.863C199.781 3.48364 200.977 4.51402 200.977 6.12617V6.14019C200.977 7.30374 200.305 8.25 199.165 8.60747L201.264 12.1472H199.585L197.682 8.81775H195.632V12.1472H194.183V3.48364H194.176ZM197.724 7.7243C198.836 7.7243 199.487 7.16355 199.487 6.17523V6.16122C199.487 5.20094 198.801 4.61215 197.682 4.61215H195.632V7.71729H197.724V7.7243Z" fill="#231F20"/>
</g>
<defs>
<clipPath id="clip0_2_510">
<rect width="205" height="75" fill="white"/>
</clipPath>
</defs>
</svg>
